<svg version="1.1" id="Layer_1" xmlns="http://www.w3.org/2000/svg" xmlns:xlink="http://www.w3.org/1999/xlink" x="0px" y="0px"
	 width="100%" viewBox="0 0 1280 564" enable-background="new 0 0 1280 564" xml:space="preserve">
<path fill="#000000" opacity="1.000000" stroke="none" 
	d="
M1036.000000,565.000000 
	C766.644653,565.000000 497.289307,565.000000 227.124939,564.674805 
	C227.127930,563.919250 227.898468,563.236328 228.757965,563.095215 
	C254.329941,558.895874 271.632568,544.601624 279.052917,519.837585 
	C283.135590,506.212494 285.505554,492.019470 287.878845,477.952789 
	C290.113647,464.706787 292.429688,451.316528 292.748260,437.942993 
	C293.202972,418.854889 282.375641,405.532959 264.025085,400.095032 
	C249.868027,395.899780 235.382416,395.921661 220.962646,398.160461 
	C195.308304,402.143555 177.023727,415.799835 168.795792,440.854889 
	C165.395309,451.209747 163.511475,462.117920 161.593811,472.891205 
	C158.914749,487.941956 155.960220,503.029755 154.725632,518.231873 
	C152.750702,542.549927 164.508957,557.691284 187.547974,562.696899 
	C188.845779,562.978821 190.200287,563.035278 191.464203,563.412048 
	C191.773132,563.504211 191.828217,564.447876 192.000000,565.000000 
	C128.333313,565.000000 64.666626,565.000000 1.000000,565.000000 
	C1.000000,557.905457 1.000000,550.919800 1.371726,543.149536 
	C2.287806,548.668457 2.832159,554.971985 3.392488,561.460510 
	C4.049828,561.530396 4.688623,561.657410 5.327485,561.657715 
	C27.478731,561.669434 49.630875,561.571655 71.780289,561.774414 
	C75.161148,561.805298 75.961609,560.084534 76.884758,557.646118 
	C96.454224,505.955597 116.054398,454.276794 135.633514,402.589966 
	C136.126114,401.289581 136.448380,399.924713 136.902191,398.416870 
	C122.063606,398.416870 107.749168,398.416870 93.193695,398.416870 
	C92.483353,400.258301 91.718689,402.086243 91.066689,403.953522 
	C77.770393,442.033478 64.430679,480.098541 51.294624,518.233765 
	C50.080643,521.758118 48.426098,522.561523 45.056057,521.527588 
	C45.056057,480.598694 45.056057,439.703156 45.056057,398.329193 
	C43.014496,398.329193 41.220352,398.341949 39.426434,398.327118 
	C26.617598,398.221222 13.808806,398.109711 1.000000,398.000000 
	C1.000000,265.727997 1.000000,133.455978 1.000000,1.000000 
	C180.688644,1.000000 360.377350,1.000000 540.450317,1.462335 
	C540.902527,12.412425 540.928284,22.900652 541.045227,33.387859 
	C541.943604,113.956680 542.859680,194.525314 543.577881,274.793488 
	C542.611267,272.664154 541.753418,270.865753 541.074585,269.002106 
	C514.051147,194.810333 487.044220,120.612549 460.034271,46.415844 
	C456.298920,36.154861 452.559235,25.895462 449.004547,16.137642 
	C334.107452,14.131375 219.912857,12.137375 104.702698,10.125641 
	C106.135910,11.450612 106.773239,12.137776 107.505203,12.702241 
	C129.268433,29.485285 150.999420,46.311001 172.885406,62.932575 
	C174.787445,64.377098 177.709473,65.047768 180.176712,65.095528 
	C239.989075,66.253304 299.803864,67.287170 359.618744,68.311058 
	C365.907959,68.418716 372.200592,68.325539 378.491638,68.325539 
	C378.494202,68.827629 378.496765,69.329727 378.499329,69.831818 
	C323.262634,73.494759 268.025940,77.157700 211.674744,80.894547 
	C213.781967,82.670929 214.994919,83.728172 216.243820,84.741096 
	C236.816071,101.426186 257.470734,118.011345 277.895508,134.874924 
	C281.498016,137.849319 285.034637,138.977478 289.601410,139.023590 
	C318.928864,139.319717 348.253265,139.905075 377.579895,140.305267 
	C387.777313,140.444427 397.978210,140.327454 408.177521,140.327454 
	C408.182648,140.823883 408.187744,141.320297 408.192871,141.816727 
	C378.873047,144.526459 349.553223,147.236206 318.745300,150.083466 
	C320.465424,151.259720 320.878754,151.520844 321.269257,151.812485 
	C343.419525,168.355164 365.543915,184.932785 387.766815,201.377304 
	C389.363678,202.558960 391.665070,203.296677 393.662109,203.348633 
	C409.153168,203.751740 424.656708,203.754852 440.139343,204.335861 
	C443.324982,204.455399 446.990051,205.774384 449.499329,207.736221 
	C469.971069,223.741974 490.268280,239.972610 510.519348,256.258270 
	C521.801636,265.331360 532.894653,274.639832 544.001709,284.316101 
	C544.243408,315.353241 544.556458,345.916504 544.869751,376.498566 
	C600.998047,376.498566 656.377930,376.498566 711.766418,376.498566 
	C712.427673,374.910400 713.040039,373.548676 713.568542,372.155182 
	C752.361145,269.877960 791.162842,167.604218 829.920654,65.313820 
	C838.031372,43.907818 845.977844,22.439568 854.000000,0.999998 
	C996.268372,1.000000 1138.536743,1.000000 1281.000000,1.000000 
	C1281.000000,175.688629 1281.000000,350.377350 1280.535034,525.596191 
	C1259.670532,526.126343 1239.270996,526.126343 1218.465576,526.126343 
	C1225.992432,483.218048 1233.396606,441.009613 1240.833740,398.612854 
	C1227.025269,398.612854 1213.628052,398.612854 1200.029053,398.612854 
	C1190.448242,452.968048 1180.910522,507.079132 1171.354126,561.295654 
	C1206.238525,561.295654 1240.434448,561.295654 1274.670898,561.295654 
	C1276.155151,553.089661 1277.525635,545.232605 1279.060547,537.407715 
	C1279.236206,536.512817 1280.331299,535.798218 1281.000000,535.000000 
	C1281.000000,544.981873 1281.000000,554.963745 1281.000000,565.000000 
	C1211.311279,565.000000 1141.622681,565.000000 1071.136719,564.663818 
	C1071.499756,563.872925 1072.622437,563.213440 1073.825562,562.994263 
	C1093.834229,559.348816 1109.647339,549.559021 1118.594482,530.867432 
	C1122.285767,523.156250 1125.212524,514.806580 1126.834595,506.427399 
	C1132.301636,478.185242 1137.030396,449.800079 1142.033325,421.468201 
	C1143.374023,413.876221 1144.686035,406.279175 1146.033813,398.555145 
	C1132.077026,398.555145 1118.790771,398.555145 1105.285278,398.555145 
	C1100.840820,423.607117 1096.523804,448.496613 1091.977295,473.344055 
	C1089.555908,486.577911 1087.226196,499.862396 1083.940308,512.893311 
	C1081.410156,522.927368 1073.982910,528.109558 1063.630493,529.323608 
	C1045.939697,531.398132 1038.062378,524.140564 1040.820068,506.538452 
	C1045.298218,477.957153 1050.604980,449.505768 1055.552856,420.997925 
	C1056.840454,413.579041 1058.094238,406.154297 1059.432373,398.329468 
	C1046.736206,398.329468 1034.921387,398.488983 1023.115356,398.235687 
	C1019.407166,398.156097 1018.459229,399.472076 1017.871826,402.914368 
	C1013.172363,430.455566 1008.002502,457.917938 1003.468506,485.485321 
	C1001.342529,498.411926 999.068726,511.515198 999.051453,524.541260 
	C999.024536,544.848938 1009.962463,557.197205 1029.684448,562.119080 
	C1031.454956,562.560913 1033.295166,562.745728 1035.034180,563.275757 
	C1035.489136,563.414368 1035.685059,564.402222 1036.000000,565.000000 
M569.230957,553.793213 
	C587.452881,543.660034 597.948914,527.898254 601.928406,507.780334 
	C605.316345,490.653351 608.427979,473.452423 610.931213,456.178345 
	C612.087646,448.197662 612.699036,439.777466 611.464233,431.884003 
	C608.679871,414.084412 597.181091,402.277588 579.767151,400.650238 
	C552.522156,398.104156 525.014648,398.366730 497.562988,397.437653 
	C487.779419,452.936127 478.237854,507.061859 468.665131,561.364441 
	C469.993195,561.517822 470.640930,561.657776 471.288757,561.658081 
	C492.115723,561.667908 512.943542,561.775818 533.769348,561.620056 
	C545.842224,561.529724 557.657715,559.847656 569.230957,553.793213 
M738.000427,507.039001 
	C734.819702,525.101990 731.639038,543.164917 728.379944,561.672852 
	C741.299438,561.672852 753.279480,561.548889 765.253967,561.751221 
	C768.673218,561.808960 769.630920,560.655823 770.197937,557.364014 
	C776.946167,518.190308 783.905396,479.052979 790.778442,439.900696 
	C793.185120,426.190918 795.507324,412.466309 797.885864,398.645630 
	C784.071594,398.645630 770.667847,398.645630 757.149292,398.645630 
	C753.036255,421.626526 748.974609,444.320587 744.928894,466.925415 
	C729.985107,466.925415 715.549805,466.925415 700.808594,466.925415 
	C704.856262,444.067322 708.851990,421.502380 712.905762,398.609619 
	C699.180054,398.609619 685.775635,398.609619 672.106628,398.609619 
	C662.547058,452.837891 653.000305,506.993164 643.361877,561.668823 
	C656.723206,561.668823 669.361755,561.738647 681.995972,561.534851 
	C682.996277,561.518738 684.590942,559.737122 684.844055,558.549011 
	C686.090637,552.697388 686.971008,546.768005 687.993042,540.868225 
	C690.173157,528.282654 692.360962,515.698425 694.569092,502.978302 
	C709.363098,502.978302 723.795593,502.978302 738.447205,502.978302 
	C738.315735,504.178894 738.210571,505.139038 738.000427,507.039001 
M866.254822,415.746582 
	C849.010803,464.155823 831.766724,512.565063 814.361328,561.427307 
	C829.190674,561.427307 843.266235,561.427307 857.573120,561.427307 
	C861.267944,549.671692 864.937988,537.995056 868.638916,526.220032 
	C881.294373,526.220032 893.719177,526.220032 905.773254,526.220032 
	C905.773254,538.008484 905.773254,549.577698 905.773254,561.405518 
	C919.630432,561.405518 933.694397,561.405518 947.306763,561.405518 
	C947.306763,506.965179 947.306763,452.793671 947.306763,398.328552 
	C927.682068,398.328552 908.883240,398.295410 890.084717,398.348297 
	C884.281677,398.364624 877.014221,396.552917 873.089539,399.340546 
	C869.182251,402.115875 868.630981,409.616241 866.254822,415.746582 
M383.110291,457.716370 
	C386.569061,438.103333 390.027802,418.490295 393.583740,398.326111 
	C381.091949,398.326111 369.290771,398.487061 357.498566,398.232971 
	C353.713623,398.151398 352.502502,399.280670 351.854462,403.040894 
	C345.471252,440.079803 338.831848,477.074463 332.294403,514.086853 
	C329.522125,529.782410 326.819427,545.490295 324.001312,561.673889 
	C326.173065,561.673889 327.971161,561.673950 329.769226,561.673950 
	C351.926483,561.673950 374.083740,561.674011 396.240997,561.673950 
	C405.403778,561.673950 414.568756,561.772583 423.726990,561.567932 
	C425.112518,561.537048 427.477203,560.294861 427.679596,559.274048 
	C429.834045,548.406494 431.643158,537.470520 433.652588,525.948975 
	C412.552002,525.948975 392.029266,525.948975 371.219330,525.948975 
	C375.218018,503.117767 379.118378,480.847870 383.110291,457.716370 
z"/>
<path fill="#F1F1EF" opacity="1.000000" stroke="none" 
	d="
M853.531372,0.999998 
	C845.977844,22.439568 838.031372,43.907818 829.920654,65.313820 
	C791.162842,167.604218 752.361145,269.877960 713.568542,372.155182 
	C713.040039,373.548676 712.427673,374.910400 711.766418,376.498566 
	C656.377930,376.498566 600.998047,376.498566 544.869751,376.498566 
	C544.556458,345.916504 544.243408,315.353241 544.295410,284.374573 
	C545.049988,284.033203 545.439636,284.107178 545.921021,284.363129 
	C546.228455,284.507874 546.444153,284.470673 546.659851,284.433472 
	C546.491333,284.241730 546.322815,284.049957 546.141113,283.474548 
	C545.341980,280.425293 544.556091,277.759644 543.770203,275.093994 
	C542.859680,194.525314 541.943604,113.956680 541.045227,33.387859 
	C540.928284,22.900652 540.902527,12.412425 540.917236,1.462335 
	C574.687561,1.000000 608.375122,1.000000 642.523193,1.468595 
	C642.459656,96.206841 641.935547,190.476486 641.410217,284.978485 
	C643.080688,285.085449 644.401062,285.032745 645.665161,285.274445 
	C651.546997,286.399231 654.110718,284.005707 656.111450,278.211304 
	C684.078125,197.214249 712.379761,116.332901 740.543213,35.403679 
	C744.515503,23.989151 748.188477,12.470472 752.000000,1.000005 
	C785.687561,1.000000 819.375122,1.000000 853.531372,0.999998 
z"/>
<path fill="#010101" opacity="1.000000" stroke="none" 
	d="
M751.531372,1.000005 
	C748.188477,12.470472 744.515503,23.989151 740.543213,35.403679 
	C712.379761,116.332901 684.078125,197.214249 656.111450,278.211304 
	C654.110718,284.005707 651.546997,286.399231 645.665161,285.274445 
	C644.401062,285.032745 643.080688,285.085449 641.410217,284.978485 
	C641.935547,190.476486 642.459656,96.206841 642.991821,1.468595 
	C679.020874,1.000000 715.041809,1.000000 751.531372,1.000005 
z"/>
<path fill="#F3F3F3" opacity="1.000000" stroke="none" 
	d="
M192.468658,565.000000 
	C191.828217,564.447876 191.773132,563.504211 191.464203,563.412048 
	C190.200287,563.035278 188.845779,562.978821 187.547974,562.696899 
	C164.508957,557.691284 152.750702,542.549927 154.725632,518.231873 
	C155.960220,503.029755 158.914749,487.941956 161.593811,472.891205 
	C163.511475,462.117920 165.395309,451.209747 168.795792,440.854889 
	C177.023727,415.799835 195.308304,402.143555 220.962646,398.160461 
	C235.382416,395.921661 249.868027,395.899780 264.025085,400.095032 
	C282.375641,405.532959 293.202972,418.854889 292.748260,437.942993 
	C292.429688,451.316528 290.113647,464.706787 287.878845,477.952789 
	C285.505554,492.019470 283.135590,506.212494 279.052917,519.837585 
	C271.632568,544.601624 254.329941,558.895874 228.757965,563.095215 
	C227.898468,563.236328 227.127930,563.919250 226.657959,564.674805 
	C215.645767,565.000000 204.291550,565.000000 192.468658,565.000000 
M247.223923,476.797546 
	C248.511215,467.257385 250.489105,457.746460 250.894135,448.168976 
	C251.310104,438.333405 244.913834,432.529297 235.054764,432.000580 
	C220.280807,431.208313 209.962585,438.306091 206.169266,452.671082 
	C204.052628,460.686646 202.761810,468.940643 201.447983,477.143127 
	C199.503479,489.282928 197.431244,501.430542 196.260300,513.655945 
	C195.505310,521.538818 199.616058,526.907166 206.783844,528.526550 
	C219.947021,531.500427 236.128891,529.557617 240.896790,509.964172 
	C243.486938,499.320007 245.061920,488.428802 247.223923,476.797546 
z"/>
<path fill="#F2F2F2" opacity="1.000000" stroke="none" 
	d="
M1036.468628,565.000000 
	C1035.685059,564.402222 1035.489136,563.414368 1035.034180,563.275757 
	C1033.295166,562.745728 1031.454956,562.560913 1029.684448,562.119080 
	C1009.962463,557.197205 999.024536,544.848938 999.051453,524.541260 
	C999.068726,511.515198 1001.342529,498.411926 1003.468506,485.485321 
	C1008.002502,457.917938 1013.172363,430.455566 1017.871826,402.914368 
	C1018.459229,399.472076 1019.407166,398.156097 1023.115356,398.235687 
	C1034.921387,398.488983 1046.736206,398.329468 1059.432373,398.329468 
	C1058.094238,406.154297 1056.840454,413.579041 1055.552856,420.997925 
	C1050.604980,449.505768 1045.298218,477.957153 1040.820068,506.538452 
	C1038.062378,524.140564 1045.939697,531.398132 1063.630493,529.323608 
	C1073.982910,528.109558 1081.410156,522.927368 1083.940308,512.893311 
	C1087.226196,499.862396 1089.555908,486.577911 1091.977295,473.344055 
	C1096.523804,448.496613 1100.840820,423.607117 1105.285278,398.555145 
	C1118.790771,398.555145 1132.077026,398.555145 1146.033813,398.555145 
	C1144.686035,406.279175 1143.374023,413.876221 1142.033325,421.468201 
	C1137.030396,449.800079 1132.301636,478.185242 1126.834595,506.427399 
	C1125.212524,514.806580 1122.285767,523.156250 1118.594482,530.867432 
	C1109.647339,549.559021 1093.834229,559.348816 1073.825562,562.994263 
	C1072.622437,563.213440 1071.499756,563.872925 1070.669800,564.663818 
	C1059.645752,565.000000 1048.291504,565.000000 1036.468628,565.000000 
z"/>
<path fill="#F2F2F2" opacity="1.000000" stroke="none" 
	d="
M1.000000,398.468658 
	C13.808806,398.109711 26.617598,398.221222 39.426434,398.327118 
	C41.220352,398.341949 43.014496,398.329193 45.056057,398.329193 
	C45.056057,439.703156 45.056057,480.598694 45.056057,521.527588 
	C48.426098,522.561523 50.080643,521.758118 51.294624,518.233765 
	C64.430679,480.098541 77.770393,442.033478 91.066689,403.953522 
	C91.718689,402.086243 92.483353,400.258301 93.193695,398.416870 
	C107.749168,398.416870 122.063606,398.416870 136.902191,398.416870 
	C136.448380,399.924713 136.126114,401.289581 135.633514,402.589966 
	C116.054398,454.276794 96.454224,505.955597 76.884758,557.646118 
	C75.961609,560.084534 75.161148,561.805298 71.780289,561.774414 
	C49.630875,561.571655 27.478731,561.669434 5.327485,561.657715 
	C4.688623,561.657410 4.049828,561.530396 3.392488,561.460510 
	C2.832159,554.971985 2.287806,548.668457 1.371726,542.682495 
	C1.000000,494.979095 1.000000,446.958221 1.000000,398.468658 
z"/>
<path fill="#F1F1F1" opacity="1.000000" stroke="none" 
	d="
M1281.000000,534.549988 
	C1280.331299,535.798218 1279.236206,536.512817 1279.060547,537.407715 
	C1277.525635,545.232605 1276.155151,553.089661 1274.670898,561.295654 
	C1240.434448,561.295654 1206.238525,561.295654 1171.354126,561.295654 
	C1180.910522,507.079132 1190.448242,452.968048 1200.029053,398.612854 
	C1213.628052,398.612854 1227.025269,398.612854 1240.833740,398.612854 
	C1233.396606,441.009613 1225.992432,483.218048 1218.465576,526.126343 
	C1239.270996,526.126343 1259.670532,526.126343 1280.535034,526.063171 
	C1281.000000,528.700012 1281.000000,531.400024 1281.000000,534.549988 
z"/>
<path fill="#F1BB57" opacity="1.000000" stroke="none" 
	d="
M543.577881,274.793488 
	C544.556091,277.759644 545.341980,280.425293 546.058716,283.554199 
	C545.989563,284.017456 545.829224,284.181183 545.829224,284.181183 
	C545.439636,284.107178 545.049988,284.033203 544.366699,283.900696 
	C532.894653,274.639832 521.801636,265.331360 510.519348,256.258270 
	C490.268280,239.972610 469.971069,223.741974 449.499329,207.736221 
	C446.990051,205.774384 443.324982,204.455399 440.139343,204.335861 
	C424.656708,203.754852 409.153168,203.751740 393.662109,203.348633 
	C391.665070,203.296677 389.363678,202.558960 387.766815,201.377304 
	C365.543915,184.932785 343.419525,168.355164 321.269257,151.812485 
	C320.878754,151.520844 320.465424,151.259720 318.745300,150.083466 
	C349.553223,147.236206 378.873047,144.526459 408.192871,141.816727 
	C408.187744,141.320297 408.182648,140.823883 408.177521,140.327454 
	C397.978210,140.327454 387.777313,140.444427 377.579895,140.305267 
	C348.253265,139.905075 318.928864,139.319717 289.601410,139.023590 
	C285.034637,138.977478 281.498016,137.849319 277.895508,134.874924 
	C257.470734,118.011345 236.816071,101.426186 216.243820,84.741096 
	C214.994919,83.728172 213.781967,82.670929 211.674744,80.894547 
	C268.025940,77.157700 323.262634,73.494759 378.499329,69.831818 
	C378.496765,69.329727 378.494202,68.827629 378.491638,68.325539 
	C372.200592,68.325539 365.907959,68.418716 359.618744,68.311058 
	C299.803864,67.287170 239.989075,66.253304 180.176712,65.095528 
	C177.709473,65.047768 174.787445,64.377098 172.885406,62.932575 
	C150.999420,46.311001 129.268433,29.485285 107.505203,12.702241 
	C106.773239,12.137776 106.135910,11.450612 104.702698,10.125641 
	C219.912857,12.137375 334.107452,14.131375 449.004547,16.137642 
	C452.559235,25.895462 456.298920,36.154861 460.034271,46.415844 
	C487.044220,120.612549 514.051147,194.810333 541.074585,269.002106 
	C541.753418,270.865753 542.611267,272.664154 543.577881,274.793488 
z"/>
<path fill="#F2F2F2" opacity="1.000000" stroke="none" 
	d="
M568.884888,553.932373 
	C557.657715,559.847656 545.842224,561.529724 533.769348,561.620056 
	C512.943542,561.775818 492.115723,561.667908 471.288757,561.658081 
	C470.640930,561.657776 469.993195,561.517822 468.665131,561.364441 
	C478.237854,507.061859 487.779419,452.936127 497.562988,397.437653 
	C525.014648,398.366730 552.522156,398.104156 579.767151,400.650238 
	C597.181091,402.277588 608.679871,414.084412 611.464233,431.884003 
	C612.699036,439.777466 612.087646,448.197662 610.931213,456.178345 
	C608.427979,473.452423 605.316345,490.653351 601.928406,507.780334 
	C597.948914,527.898254 587.452881,543.660034 568.884888,553.932373 
M553.906372,520.445435 
	C555.938477,517.051453 558.340210,513.816650 559.891357,510.215485 
	C561.251099,507.058502 561.850647,503.524292 562.449036,500.097870 
	C564.881348,486.169067 567.526978,472.264374 569.435059,458.261017 
	C571.239990,445.014313 565.180542,435.986725 553.296387,434.406342 
	C546.318115,433.478363 539.115479,434.237030 531.752258,434.237030 
	C526.444458,464.764160 521.152466,495.200165 515.781128,526.092712 
	C523.682007,526.092712 531.221802,526.722900 538.591492,525.874756 
	C543.640503,525.293579 548.452637,522.654724 553.906372,520.445435 
z"/>
<path fill="#F1F1F1" opacity="1.000000" stroke="none" 
	d="
M738.052917,506.569092 
	C738.210571,505.139038 738.315735,504.178894 738.447205,502.978302 
	C723.795593,502.978302 709.363098,502.978302 694.569092,502.978302 
	C692.360962,515.698425 690.173157,528.282654 687.993042,540.868225 
	C686.971008,546.768005 686.090637,552.697388 684.844055,558.549011 
	C684.590942,559.737122 682.996277,561.518738 681.995972,561.534851 
	C669.361755,561.738647 656.723206,561.668823 643.361877,561.668823 
	C653.000305,506.993164 662.547058,452.837891 672.106628,398.609619 
	C685.775635,398.609619 699.180054,398.609619 712.905762,398.609619 
	C708.851990,421.502380 704.856262,444.067322 700.808594,466.925415 
	C715.549805,466.925415 729.985107,466.925415 744.928894,466.925415 
	C748.974609,444.320587 753.036255,421.626526 757.149292,398.645630 
	C770.667847,398.645630 784.071594,398.645630 797.885864,398.645630 
	C795.507324,412.466309 793.185120,426.190918 790.778442,439.900696 
	C783.905396,479.052979 776.946167,518.190308 770.197937,557.364014 
	C769.630920,560.655823 768.673218,561.808960 765.253967,561.751221 
	C753.279480,561.548889 741.299438,561.672852 728.379944,561.672852 
	C731.639038,543.164917 734.819702,525.101990 738.052917,506.569092 
z"/>
<path fill="#F2F2F2" opacity="1.000000" stroke="none" 
	d="
M866.431519,415.395691 
	C868.630981,409.616241 869.182251,402.115875 873.089539,399.340546 
	C877.014221,396.552917 884.281677,398.364624 890.084717,398.348297 
	C908.883240,398.295410 927.682068,398.328552 947.306763,398.328552 
	C947.306763,452.793671 947.306763,506.965179 947.306763,561.405518 
	C933.694397,561.405518 919.630432,561.405518 905.773254,561.405518 
	C905.773254,549.577698 905.773254,538.008484 905.773254,526.220032 
	C893.719177,526.220032 881.294373,526.220032 868.638916,526.220032 
	C864.937988,537.995056 861.267944,549.671692 857.573120,561.427307 
	C843.266235,561.427307 829.190674,561.427307 814.361328,561.427307 
	C831.766724,512.565063 849.010803,464.155823 866.431519,415.395691 
M889.105896,459.619690 
	C885.443298,471.520477 881.780640,483.421234 878.119446,495.317261 
	C888.382141,495.317261 897.951050,495.317261 907.698730,495.317261 
	C908.523560,476.122101 909.333374,457.276917 910.148743,438.303223 
	C905.063721,438.303223 900.516907,438.303223 895.835815,438.303223 
	C893.628418,445.291656 891.486633,452.072235 889.105896,459.619690 
z"/>
<path fill="#F1F1F1" opacity="1.000000" stroke="none" 
	d="
M383.064514,458.147186 
	C379.118378,480.847870 375.218018,503.117767 371.219330,525.948975 
	C392.029266,525.948975 412.552002,525.948975 433.652588,525.948975 
	C431.643158,537.470520 429.834045,548.406494 427.679596,559.274048 
	C427.477203,560.294861 425.112518,561.537048 423.726990,561.567932 
	C414.568756,561.772583 405.403778,561.673950 396.240997,561.673950 
	C374.083740,561.674011 351.926483,561.673950 329.769226,561.673950 
	C327.971161,561.673950 326.173065,561.673889 324.001312,561.673889 
	C326.819427,545.490295 329.522125,529.782410 332.294403,514.086853 
	C338.831848,477.074463 345.471252,440.079803 351.854462,403.040894 
	C352.502502,399.280670 353.713623,398.151398 357.498566,398.232971 
	C369.290771,398.487061 381.091949,398.326111 393.583740,398.326111 
	C390.027802,418.490295 386.569061,438.103333 383.064514,458.147186 
z"/>
<path fill="#F1BB57" opacity="1.000000" stroke="none" 
	d="
M546.071899,283.937805 
	C546.322815,284.049957 546.491333,284.241730 546.659851,284.433472 
	C546.444153,284.470673 546.228455,284.507874 545.921021,284.363129 
	C545.829224,284.181183 545.989563,284.017456 546.071899,283.937805 
z"/>
<path fill="#020202" opacity="1.000000" stroke="none" 
	d="
M247.159363,477.223297 
	C245.061920,488.428802 243.486938,499.320007 240.896790,509.964172 
	C236.128891,529.557617 219.947021,531.500427 206.783844,528.526550 
	C199.616058,526.907166 195.505310,521.538818 196.260300,513.655945 
	C197.431244,501.430542 199.503479,489.282928 201.447983,477.143127 
	C202.761810,468.940643 204.052628,460.686646 206.169266,452.671082 
	C209.962585,438.306091 220.280807,431.208313 235.054764,432.000580 
	C244.913834,432.529297 251.310104,438.333405 250.894135,448.168976 
	C250.489105,457.746460 248.511215,467.257385 247.159363,477.223297 
z"/>
<path fill="#020202" opacity="1.000000" stroke="none" 
	d="
M553.638550,520.690552 
	C548.452637,522.654724 543.640503,525.293579 538.591492,525.874756 
	C531.221802,526.722900 523.682007,526.092712 515.781128,526.092712 
	C521.152466,495.200165 526.444458,464.764160 531.752258,434.237030 
	C539.115479,434.237030 546.318115,433.478363 553.296387,434.406342 
	C565.180542,435.986725 571.239990,445.014313 569.435059,458.261017 
	C567.526978,472.264374 564.881348,486.169067 562.449036,500.097870 
	C561.850647,503.524292 561.251099,507.058502 559.891357,510.215485 
	C558.340210,513.816650 555.938477,517.051453 553.638550,520.690552 
z"/>
<path fill="#050505" opacity="1.000000" stroke="none" 
	d="
M889.225342,459.236267 
	C891.486633,452.072235 893.628418,445.291656 895.835815,438.303223 
	C900.516907,438.303223 905.063721,438.303223 910.148743,438.303223 
	C909.333374,457.276917 908.523560,476.122101 907.698730,495.317261 
	C897.951050,495.317261 888.382141,495.317261 878.119446,495.317261 
	C881.780640,483.421234 885.443298,471.520477 889.225342,459.236267 
z"/>
</svg>